<?xml version="1.0" standalone="no"?>
<!DOCTYPE svg PUBLIC "-//W3C//DTD SVG 20010904//EN"
 "http://www.w3.org/TR/2001/REC-SVG-20010904/DTD/svg10.dtd">
<svg version="1.0" xmlns="http://www.w3.org/2000/svg"
 width="700.000000pt" height="700.000000pt" viewBox="0 0 700.000000 700.000000"
 preserveAspectRatio="xMidYMid meet">
<metadata>
Created by potrace 1.14, written by Peter Selinger 2001-2017
</metadata>
<g transform="translate(0.000000,700.000000) scale(0.100000,-0.100000)"
fill="#000000" stroke="none">
<path d="M1612 6399 c-85 -21 -129 -43 -209 -104 -102 -76 -182 -195 -218
-325 -17 -62 -18 -180 -18 -2470 l0 -2405 22 -72 c30 -100 82 -186 160 -263
74 -74 146 -118 248 -152 l68 -23 1835 0 1835 0 74 24 c147 49 279 159 351
295 80 149 73 -99 73 2596 0 2228 -1 2410 -17 2470 -51 198 -201 358 -396 422
-64 21 -73 21 -992 23 l-928 1 0 -1018 c0 -560 -2 -1018 -5 -1018 -2 0 -46 25
-97 57 -51 31 -102 61 -113 67 -11 6 -131 78 -267 160 l-248 149 -237 -143
c-131 -78 -249 -150 -263 -159 -14 -10 -45 -28 -70 -42 -24 -13 -67 -39 -94
-56 -28 -18 -54 -33 -57 -33 -4 0 -7 438 -7 973 -1 534 -1 992 -1 1017 l-1 46
-179 0 c-140 1 -194 -3 -249 -17z m2299 -3216 c84 -40 148 -122 165 -208 4
-22 8 -307 8 -633 l1 -592 -147 0 -148 0 0 293 0 292 -142 -1 -143 -1 -3 -291
-2 -292 -145 0 -145 0 0 614 c1 613 1 615 23 664 26 58 50 89 97 124 68 51
107 57 330 55 189 -2 209 -4 251 -24z m1332 -562 c4 0 7 -65 7 -144 l0 -143
-289 -434 c-159 -239 -288 -437 -285 -439 2 -2 132 -4 289 -4 l286 1 -3 -146
-3 -146 -432 -1 c-378 0 -433 2 -434 15 -1 8 -2 74 -3 145 l-2 130 286 430
c157 237 290 433 295 437 13 10 22 10 -300 12 l-280 1 -1 135 c0 74 3 140 7
145 5 7 155 10 431 9 233 -1 426 -2 431 -3z"/>
<path d="M3504 2905 c-3 -6 -3 -71 -2 -145 l3 -135 143 0 142 -1 0 147 0 146
-141 -1 c-92 0 -143 -4 -145 -11z"/>
</g>
</svg>
